<svg xmlns="http://www.w3.org/2000/svg" width="1120" height="640" viewBox="0 0 1120 640" role="img" aria-label="HermSec finding counts">
  <rect width="100%" height="100%" fill="#ffffff"/>
  <text x="64" y="30" font-size="24" font-weight="700" fill="#0f172a">HermSec finding counts</text>
  <text x="64" y="54" font-size="14" fill="#64748b">True positives, false positives, and false negatives by scenario</text>
  <g transform="translate(64,52)"><rect width="14" height="14" rx="3" fill="#22c55e"/><text x="22" y="12" font-size="13" fill="#0f172a">TP</text></g>
<g transform="translate(224,52)"><rect width="14" height="14" rx="3" fill="#ef4444"/><text x="22" y="12" font-size="13" fill="#0f172a">FP</text></g>
<g transform="translate(384,52)"><rect width="14" height="14" rx="3" fill="#94a3b8"/><text x="22" y="12" font-size="13" fill="#0f172a">FN</text></g>
  <line x1="64" y1="490" x2="1078" y2="490" stroke="#e2e8f0" stroke-width="1"/>
<text x="52" y="494" text-anchor="end" font-size="12" fill="#64748b">0</text>
<line x1="64" y1="441.3" x2="1078" y2="441.3" stroke="#e2e8f0" stroke-width="1"/>
<text x="52" y="445.3" text-anchor="end" font-size="12" fill="#64748b">10</text>
<line x1="64" y1="387.8" x2="1078" y2="387.8" stroke="#e2e8f0" stroke-width="1"/>
<text x="52" y="391.8" text-anchor="end" font-size="12" fill="#64748b">21</text>
<line x1="64" y1="339.1" x2="1078" y2="339.1" stroke="#e2e8f0" stroke-width="1"/>
<text x="52" y="343.1" text-anchor="end" font-size="12" fill="#64748b">31</text>
<line x1="64" y1="285.6" x2="1078" y2="285.6" stroke="#e2e8f0" stroke-width="1"/>
<text x="52" y="289.6" text-anchor="end" font-size="12" fill="#64748b">42</text>
<line x1="64" y1="236.9" x2="1078" y2="236.9" stroke="#e2e8f0" stroke-width="1"/>
<text x="52" y="240.9" text-anchor="end" font-size="12" fill="#64748b">52</text>
<line x1="64" y1="188.2" x2="1078" y2="188.2" stroke="#e2e8f0" stroke-width="1"/>
<text x="52" y="192.2" text-anchor="end" font-size="12" fill="#64748b">62</text>
<line x1="64" y1="134.7" x2="1078" y2="134.7" stroke="#e2e8f0" stroke-width="1"/>
<text x="52" y="138.7" text-anchor="end" font-size="12" fill="#64748b">73</text>
<line x1="64" y1="86" x2="1078" y2="86" stroke="#e2e8f0" stroke-width="1"/>
<text x="52" y="90" text-anchor="end" font-size="12" fill="#64748b">83</text>
  <line x1="64" y1="490" x2="1078" y2="490" stroke="#334155" stroke-width="1.5"/>
  <line x1="64" y1="86" x2="64" y2="490" stroke="#334155" stroke-width="1.5"/>
  <rect x="78" y="460.8" width="43" height="29.2" rx="4" fill="#22c55e"/>
  <text x="99.5" y="454.8" text-anchor="middle" font-size="11" fill="#64748b">6</text>
  <rect x="127" y="86" width="43" height="404" rx="4" fill="#ef4444"/>
  <text x="148.5" y="80" text-anchor="middle" font-size="11" fill="#64748b">83</text>
  <rect x="176" y="460.8" width="43" height="29.2" rx="4" fill="#94a3b8"/>
  <text x="197.5" y="454.8" text-anchor="middle" font-size="11" fill="#64748b">6</text>
  <rect x="247" y="480.3" width="43" height="9.7" rx="4" fill="#22c55e"/>
  <text x="268.5" y="474.3" text-anchor="middle" font-size="11" fill="#64748b">2</text>
  <rect x="296" y="485.1" width="43" height="4.9" rx="4" fill="#ef4444"/>
  <text x="317.5" y="479.1" text-anchor="middle" font-size="11" fill="#64748b">1</text>
  <rect x="345" y="441.3" width="43" height="48.7" rx="4" fill="#94a3b8"/>
  <text x="366.5" y="435.3" text-anchor="middle" font-size="11" fill="#64748b">10</text>
  <rect x="416" y="465.7" width="43" height="24.3" rx="4" fill="#22c55e"/>
  <text x="437.5" y="459.7" text-anchor="middle" font-size="11" fill="#64748b">5</text>
  <rect x="465" y="470.5" width="43" height="19.5" rx="4" fill="#ef4444"/>
  <text x="486.5" y="464.5" text-anchor="middle" font-size="11" fill="#64748b">4</text>
  <rect x="514" y="455.9" width="43" height="34.1" rx="4" fill="#94a3b8"/>
  <text x="535.5" y="449.9" text-anchor="middle" font-size="11" fill="#64748b">7</text>
  <rect x="585" y="475.4" width="43" height="14.6" rx="4" fill="#22c55e"/>
  <text x="606.5" y="469.4" text-anchor="middle" font-size="11" fill="#64748b">3</text>
  <rect x="634" y="475.4" width="43" height="14.6" rx="4" fill="#ef4444"/>
  <text x="655.5" y="469.4" text-anchor="middle" font-size="11" fill="#64748b">3</text>
  <rect x="683" y="446.2" width="43" height="43.8" rx="4" fill="#94a3b8"/>
  <text x="704.5" y="440.2" text-anchor="middle" font-size="11" fill="#64748b">9</text>
  <rect x="754" y="460.8" width="43" height="29.2" rx="4" fill="#22c55e"/>
  <text x="775.5" y="454.8" text-anchor="middle" font-size="11" fill="#64748b">6</text>
  <rect x="803" y="159" width="43" height="331" rx="4" fill="#ef4444"/>
  <text x="824.5" y="153" text-anchor="middle" font-size="11" fill="#64748b">68</text>
  <rect x="852" y="460.8" width="43" height="29.2" rx="4" fill="#94a3b8"/>
  <text x="873.5" y="454.8" text-anchor="middle" font-size="11" fill="#64748b">6</text>
  <rect x="923" y="455.9" width="43" height="34.1" rx="4" fill="#22c55e"/>
  <text x="944.5" y="449.9" text-anchor="middle" font-size="11" fill="#64748b">7</text>
  <rect x="972" y="183.3" width="43" height="306.7" rx="4" fill="#ef4444"/>
  <text x="993.5" y="177.3" text-anchor="middle" font-size="11" fill="#64748b">63</text>
  <rect x="1021" y="465.7" width="43" height="24.3" rx="4" fill="#94a3b8"/>
  <text x="1042.5" y="459.7" text-anchor="middle" font-size="11" fill="#64748b">5</text>
  <text x="148.5" y="552" text-anchor="middle" font-size="12" fill="#0f172a">Deep assisted</text>
<text x="317.5" y="552" text-anchor="middle" font-size="12" fill="#0f172a">Single agent</text>
<text x="486.5" y="552" text-anchor="middle" font-size="12" fill="#0f172a">MoA low</text>
<text x="655.5" y="552" text-anchor="middle" font-size="12" fill="#0f172a">MoA high</text>
<text x="824.5" y="552" text-anchor="middle" font-size="12" fill="#0f172a">Scanner+MoA low</text>
<text x="993.5" y="552" text-anchor="middle" font-size="12" fill="#0f172a">Scanner+MoA high</text>
</svg>
